<svg width="46" height="38" viewBox="0 0 46 38" fill="none" xmlns="http://www.w3.org/2000/svg">
<path d="M40.3 3.02342C39.8 1.64675 38.4 0.666748 36.75 0.666748H9.25C7.6 0.666748 6.225 1.64675 5.7 3.02342L0.5 17.0001V35.6668C0.5 36.9501 1.625 38.0001 3 38.0001H5.5C6.875 38.0001 8 36.9501 8 35.6668V33.3334H38V35.6668C38 36.9501 39.125 38.0001 40.5 38.0001H43C44.375 38.0001 45.5 36.9501 45.5 35.6668V17.0001L40.3 3.02342ZM9.25 26.3334C7.175 26.3334 5.5 24.7701 5.5 22.8334C5.5 20.8967 7.175 19.3334 9.25 19.3334C11.325 19.3334 13 20.8967 13 22.8334C13 24.7701 11.325 26.3334 9.25 26.3334ZM36.75 26.3334C34.675 26.3334 33 24.7701 33 22.8334C33 20.8967 34.675 19.3334 36.75 19.3334C38.825 19.3334 40.5 20.8967 40.5 22.8334C40.5 24.7701 38.825 26.3334 36.75 26.3334ZM5.5 14.6667L9.25 4.16675H36.75L40.5 14.6667H5.5Z" fill="#4C60A7"/>
</svg>
