<svg width="23" height="39" viewBox="0 0 23 39" fill="none" xmlns="http://www.w3.org/2000/svg">
<path d="M12.075 17.1625C7.25124 15.9087 5.69999 14.6125 5.69999 12.5938C5.69999 10.2775 7.84624 8.6625 11.4375 8.6625C15.22 8.6625 16.6225 10.4688 16.75 13.125H21.4462C21.2975 9.47 19.0662 6.1125 14.625 5.02875V0.375H8.24999V4.965C4.12749 5.8575 0.812492 8.535 0.812492 12.6363C0.812492 17.545 4.87124 19.9887 10.8 21.4125C16.1125 22.6875 17.175 24.5575 17.175 26.5338C17.175 28 16.1337 30.3375 11.4375 30.3375C7.05999 30.3375 5.33874 28.3825 5.10499 25.875H0.429993C0.684993 30.5287 4.16999 33.1425 8.24999 34.0137V38.625H14.625V34.0563C18.7687 33.27 22.0625 30.8687 22.0625 26.5125C22.0625 20.4775 16.8987 18.4162 12.075 17.1625Z" fill="#FFDD0E"/>
</svg>
