<svg width="37" height="38" viewBox="0 0 37 38" fill="none" xmlns="http://www.w3.org/2000/svg">
<path d="M24.6667 0H12.3333V3.61905H24.6667V0ZM16.4444 23.5238H20.5556V12.6667H16.4444V23.5238ZM32.9506 11.5629L35.8694 8.99333C34.9856 8.07048 34.0194 7.2019 32.9711 6.4419L30.0522 9.01143C26.8661 6.76762 22.8578 5.42857 18.5 5.42857C8.28389 5.42857 0 12.721 0 21.7143C0 30.7076 8.26333 38 18.5 38C28.7367 38 37 30.7076 37 21.7143C37 17.8781 35.4789 14.3495 32.9506 11.5629ZM18.5 34.381C10.545 34.381 4.11111 28.7171 4.11111 21.7143C4.11111 14.7114 10.545 9.04762 18.5 9.04762C26.455 9.04762 32.8889 14.7114 32.8889 21.7143C32.8889 28.7171 26.455 34.381 18.5 34.381Z" fill="#A851FF"/>
</svg>
